<?xml version="1.0" encoding="utf-8"?>
<!-- Generator: Adobe Illustrator 17.0.0, SVG Export Plug-In . SVG Version: 6.00 Build 0)  -->
<!DOCTYPE svg PUBLIC "-//W3C//DTD SVG 1.1//EN" "http://www.w3.org/Graphics/SVG/1.1/DTD/svg11.dtd">
<svg version="1.1" id="Layer_1" xmlns="http://www.w3.org/2000/svg" xmlns:xlink="http://www.w3.org/1999/xlink" x="0px" y="0px"
	 width="64px" height="64px" viewBox="0 0 64 64" enable-background="new 0 0 64 64" xml:space="preserve">
<path d="M53.334,0H10.668C4.801,0,0,4.801,0,10.668v42.664C0,59.203,4.801,64,10.668,64l42.666,0C59.201,64,64,59.203,64,53.332
	V10.668C64,4.801,59.201,0,53.334,0z M54.412,32H44v28H32V32h-5.783v-9.16H32v-5.949C32,8.807,35.487,4,44.992,4h10.953v9.911
	h-8.946c-2.655-0.004-2.985,1.385-2.985,3.969L44,22.84h12L54.412,32z"/>
</svg>
