<?xml version="1.0" encoding="utf-8"?>
<!-- Generator: Adobe Illustrator 17.0.0, SVG Export Plug-In . SVG Version: 6.00 Build 0)  -->
<!DOCTYPE svg PUBLIC "-//W3C//DTD SVG 1.1//EN" "http://www.w3.org/Graphics/SVG/1.1/DTD/svg11.dtd">
<svg version="1.1" id="Layer_1" xmlns="http://www.w3.org/2000/svg" xmlns:xlink="http://www.w3.org/1999/xlink" x="0px" y="0px"
	 width="64px" height="64px" viewBox="0 0 64 64" enable-background="new 0 0 64 64" xml:space="preserve">
<path d="M53.334,0H10.668C4.801,0,0,4.801,0,10.668v42.664C0,59.203,4.801,64,10.668,64h42.666C59.201,64,64,59.203,64,53.332
	V10.668C64,4.801,59.201,0,53.334,0z M17.434,51.953c-2.998,0-5.434-2.418-5.434-5.414c0-2.98,2.436-5.426,5.434-5.426
	c3.01,0,5.441,2.445,5.441,5.426C22.875,49.535,20.444,51.953,17.434,51.953z M31.092,52c0-5.113-1.988-9.926-5.591-13.528
	c-3.607-3.609-8.399-5.602-13.494-5.602l0-7.824c14.853,0,26.945,12.09,26.945,26.953L31.092,52L31.092,52z M44.977,52
	c0-18.191-14.791-32.996-32.961-32.996l0-7.828c22.5,0,40.809,18.32,40.809,40.825L44.977,52L44.977,52z"/>
</svg>
