<?xml version="1.0" encoding="utf-8"?>
<!-- Generator: Adobe Illustrator 17.0.0, SVG Export Plug-In . SVG Version: 6.00 Build 0)  -->
<!DOCTYPE svg PUBLIC "-//W3C//DTD SVG 1.1//EN" "http://www.w3.org/Graphics/SVG/1.1/DTD/svg11.dtd">
<svg version="1.1" id="Layer_1" xmlns="http://www.w3.org/2000/svg" xmlns:xlink="http://www.w3.org/1999/xlink" x="0px" y="0px"
	 width="64px" height="64px" viewBox="0 0 64 64" enable-background="new 0 0 64 64" xml:space="preserve">
<path d="M53.334,0H10.668C4.801,0,0,4.801,0,10.668v42.664C0,59.203,4.801,64,10.668,64h42.666C59.201,64,64,59.203,64,53.332
	V10.668C64,4.801,59.201,0,53.334,0z M58.746,58.746C57.293,60.2,55.371,61,53.334,61H10.668c-2.037,0-3.959-0.8-5.413-2.254
	C3.801,57.292,3,55.37,3,53.332V10.668c0-2.036,0.801-3.959,2.255-5.413C6.709,3.801,8.632,3,10.668,3h42.666
	c0.444,0,0.881,0.04,1.31,0.115L41.438,21.243l-6.128-6.128c-0.863-0.863-2.011-1.338-3.232-1.338c-1.221,0-2.368,0.475-3.232,1.338
	l-2.782,2.782c-0.156-0.213-0.318-0.423-0.492-0.626c-3.791-4.43-10.454-4.951-14.884-1.159c-4.43,3.79-4.949,10.453-1.158,14.884
	c0.869,1.017,1.891,1.825,3.002,2.425c0.023,1.14,0.466,2.273,1.334,3.141l14.981,14.98c0.863,0.864,2.011,1.34,3.233,1.34
	c1.221,0,2.369-0.476,3.232-1.339l14.981-14.98c0.864-0.863,1.34-2.012,1.34-3.233s-0.476-2.369-1.339-3.232l-1.724-1.724L61,17.44
	v35.892C61,55.37,60.2,57.293,58.746,58.746z M27.525,20.68l3.443-3.443c0.297-0.297,0.691-0.46,1.111-0.46
	c0.42,0,0.814,0.163,1.11,0.459l6.461,6.461l-7.022,9.64c-0.693,0.773-1.304,0.367-1.545,0.079c-0.083-0.097-1.73-2.255-3.861-5.049
	C28.279,25.947,28.393,23.192,27.525,20.68z M31.253,42.002c0,0,0.544,0.505,1.145,0.017l13.87-11.704l1.903,1.904
	c0.297,0.297,0.46,0.691,0.46,1.111s-0.164,0.814-0.461,1.111L33.188,49.422c-0.296,0.297-0.69,0.46-1.11,0.46
	c-0.42,0-0.814-0.164-1.111-0.461L16.139,34.594c1.726,0.232,3.504,0.039,5.165-0.592L31.253,42.002z"/>
</svg>
