<?xml version="1.0" encoding="utf-8"?>
<!-- Generator: Adobe Illustrator 17.0.0, SVG Export Plug-In . SVG Version: 6.00 Build 0)  -->
<!DOCTYPE svg PUBLIC "-//W3C//DTD SVG 1.1//EN" "http://www.w3.org/Graphics/SVG/1.1/DTD/svg11.dtd">
<svg version="1.1" id="Layer_1" xmlns="http://www.w3.org/2000/svg" xmlns:xlink="http://www.w3.org/1999/xlink" x="0px" y="0px"
	 width="64px" height="64px" viewBox="0 0 64 64" enable-background="new 0 0 64 64" xml:space="preserve">
<g>
	<path d="M45.654,32.263c-0.566-0.522-1.226-0.918-1.98-1.186c-0.754-0.268-1.607-0.421-2.557-0.457
		c-0.95-0.036-1.86-0.029-2.731,0.022c-0.871,0.051-1.944,0.12-3.221,0.207c-1.277,0.087-2.379,0.131-3.308,0.131
		c-0.928,0-2.031-0.043-3.308-0.131c-1.277-0.087-2.35-0.156-3.22-0.207c-0.87-0.051-1.781-0.058-2.731-0.022
		c-0.95,0.036-1.802,0.189-2.557,0.457c-0.754,0.268-1.414,0.664-1.98,1.186c-1.9,1.741-2.851,3.656-2.851,5.745
		c0,1.248,0.156,2.354,0.468,3.318c0.312,0.965,0.711,1.773,1.197,2.426c0.486,0.653,1.161,1.208,2.024,1.665
		c0.863,0.457,1.705,0.809,2.524,1.055c0.82,0.247,1.871,0.439,3.155,0.577c1.284,0.138,2.43,0.221,3.438,0.25
		c1.008,0.029,2.288,0.044,3.841,0.044c1.552,0,2.832-0.015,3.841-0.044c1.008-0.029,2.154-0.112,3.438-0.25
		c1.284-0.138,2.336-0.33,3.155-0.577c0.82-0.247,1.661-0.598,2.524-1.055c0.863-0.457,1.538-1.012,2.024-1.665
		c0.486-0.653,0.885-1.461,1.197-2.426c0.312-0.965,0.468-2.071,0.468-3.318C48.505,35.89,47.555,33.975,45.654,32.263z
		 M23.656,41.741c-1.536,0-2.781-1.868-2.781-4.172c0-2.304,1.245-4.172,2.781-4.172c1.536,0,2.781,1.868,2.781,4.172
		C26.438,39.873,25.192,41.741,23.656,41.741z M40.344,41.741c-1.536,0-2.781-1.868-2.781-4.172c0-2.304,1.245-4.172,2.781-4.172
		c1.536,0,2.781,1.868,2.781,4.172C43.125,39.873,41.88,41.741,40.344,41.741z"/>
	<path d="M53.334,0H10.668C4.801,0,0,4.801,0,10.668v42.664C0,59.203,4.801,64,10.668,64l42.666,0C59.201,64,64,59.203,64,53.332
		V10.668C64,4.801,59.201,0,53.334,0z M53.684,38.019c-0.377,1.632-0.903,3.05-1.578,4.254c-0.674,1.204-1.53,2.263-2.568,3.177
		c-1.037,0.914-2.162,1.661-3.373,2.241c-1.211,0.58-2.593,1.052-4.145,1.414c-1.552,0.363-3.133,0.617-4.744,0.762
		c-1.61,0.145-3.387,0.218-5.331,0.218c-1.929,0-3.699-0.072-5.309-0.218c-1.61-0.145-3.188-0.399-4.733-0.762
		c-1.545-0.363-2.919-0.834-4.123-1.414c-1.204-0.58-2.321-1.327-3.351-2.241c-1.03-0.914-1.879-1.973-2.546-3.177
		c-0.667-1.204-1.19-2.622-1.567-4.254c-0.377-1.632-0.566-3.456-0.566-5.473c0-3.598,1.204-6.709,3.612-9.335
		c-0.131-0.348-0.25-0.743-0.359-1.186c-0.109-0.442-0.21-1.074-0.305-1.893c-0.094-0.82-0.058-1.766,0.109-2.84
		c0.167-1.074,0.475-2.169,0.925-3.286c0.087-0.029,0.207-0.054,0.359-0.076c0.152-0.022,0.519-0.004,1.099,0.054
		c0.58,0.058,1.204,0.185,1.871,0.381c0.667,0.196,1.563,0.573,2.687,1.132c1.124,0.559,2.303,1.258,3.536,2.1
		c2.118-0.58,5.019-0.87,8.704-0.87c3.699,0,6.608,0.29,8.726,0.87c1.233-0.841,2.405-1.541,3.514-2.1
		c1.11-0.558,2.016-0.936,2.72-1.132c0.704-0.196,1.32-0.326,1.85-0.392c0.529-0.065,0.91-0.076,1.142-0.033l0.326,0.065
		c0.45,1.117,0.758,2.212,0.925,3.286c0.167,1.074,0.203,2.02,0.109,2.84c-0.094,0.82-0.196,1.451-0.305,1.893
		c-0.109,0.442-0.228,0.838-0.359,1.186c2.408,2.626,3.612,5.737,3.612,9.335C54.25,34.563,54.061,36.387,53.684,38.019z"/>
</g>
</svg>
