<?xml version="1.0" encoding="utf-8"?>
<!-- Generator: Adobe Illustrator 17.0.0, SVG Export Plug-In . SVG Version: 6.00 Build 0)  -->
<!DOCTYPE svg PUBLIC "-//W3C//DTD SVG 1.1//EN" "http://www.w3.org/Graphics/SVG/1.1/DTD/svg11.dtd">
<svg version="1.1" id="Layer_1" xmlns="http://www.w3.org/2000/svg" xmlns:xlink="http://www.w3.org/1999/xlink" x="0px" y="0px"
	 width="64px" height="64px" viewBox="0 0 64 64" enable-background="new 0 0 64 64" xml:space="preserve">
<path d="M53.375,0h-42.75C4.781,0,0,4.781,0,10.625v42.75C0,59.219,4.781,64,10.625,64h42.75C59.219,64,64,59.219,64,53.375v-42.75
	C64,4.781,59.219,0,53.375,0z M20.487,28h23.025c0.437,1.254,0.675,2.599,0.675,4c0,6.72-5.467,12.188-12.188,12.188
	S19.812,38.72,19.812,32C19.812,30.599,20.051,29.254,20.487,28z M56,28.003V44v8c0,2.2-1.8,4-4,4H12c-2.2,0-4-1.8-4-4v-8V28.003V28
	h6.257c-0.29,1.288-0.444,2.626-0.444,4c0,10.029,8.159,18.188,18.188,18.188S50.188,42.029,50.188,32c0-1.374-0.154-2.712-0.444-4
	H56V28.003z M56,14c0,1.1-0.9,2-2,2h-4c-1.1,0-2-0.9-2-2v-4c0-1.1,0.9-2,2-2h4c1.1,0,2,0.9,2,2V14z"/>
</svg>
