<?xml version="1.0" encoding="utf-8"?>
<!-- Generator: Adobe Illustrator 17.0.0, SVG Export Plug-In . SVG Version: 6.00 Build 0)  -->
<!DOCTYPE svg PUBLIC "-//W3C//DTD SVG 1.1//EN" "http://www.w3.org/Graphics/SVG/1.1/DTD/svg11.dtd">
<svg version="1.1" id="Layer_1" xmlns="http://www.w3.org/2000/svg" xmlns:xlink="http://www.w3.org/1999/xlink" x="0px" y="0px"
	 width="64px" height="64px" viewBox="0 0 64 64" enable-background="new 0 0 64 64" xml:space="preserve">
<path d="M53.25,0h-42.5C4.838,0,0,4.838,0,10.75v42.5C0,59.162,4.838,64,10.75,64h42.5C59.162,64,64,59.162,64,53.25v-42.5
	C64,4.838,59.162,0,53.25,0z M46.657,47.556c-11.097,0-14.946-5.003-16.998-11.225l-2.053-6.415c-1.54-4.683-3.336-8.339-8.98-8.339
	c-3.914,0-7.89,2.822-7.89,10.712c0,6.158,3.143,10.007,7.57,10.007c5.003,0,8.339-3.721,8.339-3.721l2.053,5.581
	c0,0-3.465,3.4-10.712,3.4C9.004,47.555,4,42.296,4,32.545C4,22.41,9.004,16.444,18.433,16.444c8.532,0,12.83,3.079,15.523,11.418
	l2.117,6.414c1.54,4.683,4.233,8.083,10.712,8.083c4.362,0,6.671-0.962,6.671-3.335c0-1.861-1.09-3.208-4.361-3.978l-4.362-1.026
	c-5.323-1.283-7.44-4.041-7.44-8.403c0-6.992,5.645-9.173,11.418-9.173c6.543,0,10.52,2.374,11.033,8.146l-6.415,0.77
	c-0.257-2.758-1.924-3.913-5.003-3.913c-2.823,0-4.555,1.283-4.555,3.464c0,1.924,0.834,3.079,3.656,3.721l4.105,0.898
	C57.049,30.814,60,33.508,60,38.704C60,45.118,54.612,47.556,46.657,47.556z"/>
</svg>
