<?xml version="1.0" encoding="utf-8"?>
<!-- Generator: Adobe Illustrator 17.0.0, SVG Export Plug-In . SVG Version: 6.00 Build 0)  -->
<!DOCTYPE svg PUBLIC "-//W3C//DTD SVG 1.1//EN" "http://www.w3.org/Graphics/SVG/1.1/DTD/svg11.dtd">
<svg version="1.1" id="Layer_1" xmlns="http://www.w3.org/2000/svg" xmlns:xlink="http://www.w3.org/1999/xlink" x="0px" y="0px"
	 width="64px" height="64px" viewBox="0 0 64 64" enable-background="new 0 0 64 64" xml:space="preserve">
<path d="M53.25,0h-42.5C4.838,0,0,4.838,0,10.75v42.5C0,59.162,4.838,64,10.75,64h42.5C59.162,64,64,59.162,64,53.25v-42.5
	C64,4.838,59.162,0,53.25,0z M24,52h-8V24h8V52z M20,20c-2.209,0-4-1.791-4-4s1.791-4,4-4s4,1.791,4,4S22.209,20,20,20z M52,52h-8
	V36c0-2.209-1.791-4-4-4s-4,1.791-4,4v16h-8V24h8v4.967C37.65,26.701,40.172,24,43,24c4.971,0,9,4.477,9,10V52z"/>
</svg>
