<?xml version="1.0" encoding="utf-8"?>
<!-- Generator: Adobe Illustrator 17.0.0, SVG Export Plug-In . SVG Version: 6.00 Build 0)  -->
<!DOCTYPE svg PUBLIC "-//W3C//DTD SVG 1.1//EN" "http://www.w3.org/Graphics/SVG/1.1/DTD/svg11.dtd">
<svg version="1.1" id="Layer_1" xmlns="http://www.w3.org/2000/svg" xmlns:xlink="http://www.w3.org/1999/xlink" x="0px" y="0px"
	 width="64px" height="64px" viewBox="0 0 64 64" enable-background="new 0 0 64 64" xml:space="preserve">
<path id="v2_2_" fill="#333333" d="M32,2.806c-17.673,0-32,14.327-32,32c0,6.789,2.116,13.084,5.722,18.263L3.601,55.19
	c1.605,2.21,3.462,4.226,5.528,6.005L25.444,44.88c0.264-0.264,0.693-0.264,0.957,0l5.121,5.121c0.264,0.264,0.693,0.264,0.957,0
	l5.121-5.121c0.264-0.264,0.693-0.264,0.957,0l16.315,16.315c2.066-1.779,3.923-3.795,5.528-6.005l-2.121-2.121
	C61.884,47.889,64,41.595,64,34.806C64,17.132,49.673,2.806,32,2.806z"/>
</svg>
