<?xml version="1.0" encoding="utf-8"?>
<!-- Generator: Adobe Illustrator 17.0.0, SVG Export Plug-In . SVG Version: 6.00 Build 0)  -->
<!DOCTYPE svg PUBLIC "-//W3C//DTD SVG 1.1//EN" "http://www.w3.org/Graphics/SVG/1.1/DTD/svg11.dtd">
<svg version="1.1" id="Layer_1" xmlns="http://www.w3.org/2000/svg" xmlns:xlink="http://www.w3.org/1999/xlink" x="0px" y="0px"
	 width="64px" height="64px" viewBox="0 0 64 64" enable-background="new 0 0 64 64" xml:space="preserve">
<g>
	<path fill-rule="evenodd" clip-rule="evenodd" d="M4,9.333h56c2.209,0,4,1.791,4,4s-1.791,4-4,4H4c-2.209,0-4-1.791-4-4
		S1.791,9.333,4,9.333z"/>
	<path fill-rule="evenodd" clip-rule="evenodd" d="M4,28h56c2.209,0,4,1.791,4,4c0,2.209-1.791,4-4,4H4c-2.209,0-4-1.791-4-4
		C0,29.791,1.791,28,4,28z"/>
	<path fill-rule="evenodd" clip-rule="evenodd" d="M4,46.667h56c2.209,0,4,1.791,4,4c0,2.209-1.791,4-4,4H4c-2.209,0-4-1.791-4-4
		C0,48.458,1.791,46.667,4,46.667z"/>
</g>
</svg>
