<?xml version="1.0" encoding="utf-8"?>
<!-- Generator: Adobe Illustrator 17.0.0, SVG Export Plug-In . SVG Version: 6.00 Build 0)  -->
<!DOCTYPE svg PUBLIC "-//W3C//DTD SVG 1.1//EN" "http://www.w3.org/Graphics/SVG/1.1/DTD/svg11.dtd">
<svg version="1.1" id="Layer_1" xmlns="http://www.w3.org/2000/svg" xmlns:xlink="http://www.w3.org/1999/xlink" x="0px" y="0px"
	 width="64px" height="64px" viewBox="0 0 64 64" enable-background="new 0 0 64 64" xml:space="preserve">
<g>
	<path d="M64,12.151c-2.355,1.044-4.885,1.75-7.542,2.068c2.711-1.625,4.793-4.198,5.773-7.264
		c-2.537,1.505-5.347,2.598-8.338,3.186c-2.395-2.552-5.807-4.146-9.584-4.146c-7.252,0-13.13,5.879-13.13,13.13
		c0,1.029,0.116,2.031,0.34,2.992C20.607,21.569,10.931,16.342,4.456,8.398c-1.13,1.94-1.778,4.195-1.778,6.602
		c0,4.555,2.318,8.574,5.842,10.929c-2.153-0.068-4.177-0.659-5.947-1.642c-0.001,0.055-0.001,0.11-0.001,0.165
		c0,6.362,4.526,11.669,10.532,12.875c-1.102,0.3-2.261,0.461-3.459,0.461c-0.847,0-1.669-0.082-2.471-0.236
		c1.671,5.216,6.52,9.012,12.266,9.118C14.946,50.191,9.284,52.29,3.132,52.29c-1.06,0-2.105-0.062-3.132-0.184
		c5.811,3.726,12.712,5.9,20.127,5.9c24.151,0,37.358-20.007,37.358-37.359c0-0.569-0.013-1.135-0.038-1.699
		C60.014,17.097,62.24,14.784,64,12.151L64,12.151z M64,12.151"/>
</g>
</svg>
