<?xml version="1.0" encoding="utf-8"?>
<!-- Generator: Adobe Illustrator 17.0.0, SVG Export Plug-In . SVG Version: 6.00 Build 0)  -->
<!DOCTYPE svg PUBLIC "-//W3C//DTD SVG 1.1//EN" "http://www.w3.org/Graphics/SVG/1.1/DTD/svg11.dtd">
<svg version="1.1" id="Layer_1" xmlns="http://www.w3.org/2000/svg" xmlns:xlink="http://www.w3.org/1999/xlink" x="0px" y="0px"
	 width="64px" height="64px" viewBox="0 0 64 64" enable-background="new 0 0 64 64" xml:space="preserve">
<path d="M53.334,0H10.668C4.801,0,0,4.801,0,10.668v42.664C0,59.203,4.801,64,10.668,64h42.666C59.201,64,64,59.203,64,53.332
	V10.668C64,4.801,59.201,0,53.334,0z M52.378,21.365c0.021,0.459,0.031,0.92,0.031,1.384c0,14.138-10.576,30.442-29.916,30.442
	c-5.938,0-11.465-1.772-16.118-4.807c0.823,0.099,1.66,0.15,2.508,0.15c4.926,0,9.46-1.711,13.058-4.58
	c-4.601-0.086-8.484-3.18-9.822-7.43c0.642,0.125,1.301,0.192,1.978,0.192c0.959,0,1.888-0.131,2.77-0.375
	c-4.81-0.983-8.434-5.307-8.434-10.491c0-0.045,0-0.09,0.001-0.135c1.417,0.801,3.039,1.282,4.762,1.338
	c-2.821-1.919-4.678-5.193-4.678-8.906c0-1.961,0.518-3.799,1.424-5.379c5.186,6.473,12.933,10.733,21.672,11.179
	c-0.179-0.783-0.272-1.6-0.272-2.438c0-5.909,4.708-10.699,10.514-10.699c3.024,0,5.757,1.299,7.675,3.379
	c2.395-0.48,4.645-1.37,6.677-2.596c-0.785,2.498-2.452,4.595-4.623,5.919c2.127-0.259,4.153-0.834,6.039-1.685
	C56.216,17.972,54.433,19.856,52.378,21.365z"/>
</svg>
